<?xml version="1.0" encoding="utf-8"?>
<!-- Generator: Adobe Illustrator 24.1.0, SVG Export Plug-In . SVG Version: 6.00 Build 0)  -->
<svg version="1.1" id="Layer_1" xmlns="http://www.w3.org/2000/svg" xmlns:xlink="http://www.w3.org/1999/xlink" x="0px" y="0px"
	 viewBox="0 0 114.6 34.1" style="enable-background:new 0 0 114.6 34.1;" xml:space="preserve">
<style type="text/css">
	.st0{display:none;}
	.st1{display:inline;fill:#377DFF;}
	.st2{display:inline;opacity:0.65;fill:#3F7DE0;enable-background:new    ;}
	.st3{display:inline;opacity:0.5;fill:#00DFFC;enable-background:new    ;}
	.st4{display:inline;opacity:0.7;fill:#3F7DE0;enable-background:new    ;}
	.st5{display:inline;fill:#FFFFFF;}
	.st6{fill:url(#SVGID_1_);}
	.st7{fill:url(#SVGID_2_);}
</style>
<g class="st0">
	<path class="st1" d="M58.9,38.2V10h17.9v5.2H65.6v6.1H74v5.2h-8.4v11.7H58.9z"/>
	<path class="st1" d="M86.2,15.8V20c1.6-2.9,3.7-4.4,6.3-4.4v7h-1.6c-1.5,0-2.7,0.4-3.5,1.1c-0.8,0.8-1.2,2.1-1.2,3.9v10.6h-6.7
		V15.8H86.2z"/>
	<path class="st1" d="M95.9,35.3c-2.2-2.1-3.3-4.9-3.3-8.4s1.1-6.2,3.3-8.3c2.2-2.1,4.9-3.1,8.1-3.1s5.9,1,8.1,3.1s3.3,4.8,3.3,8.3
		s-1.1,6.2-3.3,8.4s-4.9,3.2-8.1,3.2S98.1,37.4,95.9,35.3z M107.3,31.2c0.9-1,1.3-2.4,1.3-4.2s-0.5-3.2-1.4-4.2s-2-1.4-3.3-1.4
		s-2.3,0.5-3.2,1.4c-0.9,1-1.4,2.3-1.4,4.2s0.5,3.2,1.4,4.2s2,1.4,3.3,1.4S106.4,32.1,107.3,31.2z"/>
	<path class="st1" d="M124.5,15.8v3.3c1.4-2.4,3.6-3.5,6.6-3.5c2.5,0,4.5,0.9,6.1,2.6s2.3,4,2.3,7v13.1h-6.7V26
		c0-1.4-0.4-2.6-1.1-3.4c-0.7-0.8-1.8-1.2-3.1-1.2s-2.3,0.4-3.1,1.2c-0.7,0.8-1.1,1.9-1.1,3.4v12.2h-6.7V15.8H124.5z"/>
	<path class="st1" d="M152.5,32.4h2.4v5.8h-3.4c-2.5,0-4.4-0.6-5.7-1.7c-1.3-1.1-2-3-2-5.7v-9.3h-2v-5.7h2v-5.5h6.7v5.5h4.4v5.7
		h-4.4v9.3C150.5,31.8,151.2,32.4,152.5,32.4z"/>
	<path class="st2" d="M23,41.1L23,41.1c-9.9,0-18-8-18-18l0,0c0-9.9,8-18,18-18h11.3c3.7,0,6.6,3,6.6,6.6v11.4
		C41,33,32.9,41.1,23,41.1z"/>
	<path class="st3" d="M28,36L28,36c-9.9,0-18-8-18-18l0,0c0-9.9,8-18,18-18h11.3C43,0.1,46,3.1,46,6.7v11.4C46,28,38,36,28,36z"/>
	<path class="st4" d="M18,46.1L18,46.1c-10,0-18-8-18-18l0,0c0-9.9,8-18,18-18h11.3c3.7,0,6.6,3,6.6,6.6v11.4
		C35.9,38.1,27.9,46.1,18,46.1z"/>
	<path class="st5" d="M17.4,34.1V18.4h10.2v2.9h-6.4v3.4H26v2.9h-4.8v6.5H17.4z"/>
</g>
<g>
	<linearGradient id="SVGID_1_" gradientUnits="userSpaceOnUse" x1="29.7026" y1="19.4574" x2="82.0385" y2="19.4574">
		<stop  offset="0" style="stop-color:#FBAB7E"/>
		<stop  offset="1" style="stop-color:#F7CE68"/>
	</linearGradient>
	<path class="st6" d="M38.7,17.9c-0.8-1-1.8-1.6-2.9-1.8c-0.1,0-0.2,0-0.3,0c-0.1,0-0.2,0-0.2,0v3.6c0.8,0.2,1.1,0.7,1.1,1.5v3.4
		c-0.4-0.3-1-0.4-1.5-0.4c-0.6,0-1.2,0.2-1.7,0.5v-3.5c0-0.7,0.3-1.2,1-1.5V16c-0.7,0.1-1.3,0.2-1.8,0.5c-0.6,0.3-1,0.7-1.4,1.1
		c-0.4,0.4-0.7,1-0.9,1.6c-0.2,0.6-0.3,1.2-0.3,1.9v9.8h10.2v-9.8C39.9,20,39.5,18.9,38.7,17.9z M36.4,27.4h-3.2v-0.8
		c0.4-0.6,1-0.9,1.6-0.9c0.6,0,1.1,0.3,1.5,0.8V27.4z M38,9.3c-0.9-0.9-2-1.3-3.2-1.3c-1.3,0-2.4,0.4-3.2,1.3
		c-0.9,0.9-1.3,2-1.3,3.2v3.1h9.2v-3.1C39.4,11.3,38.9,10.2,38,9.3z M35.8,14.3h-2.1l0-0.3c0.4-0.2,0.7-0.4,1-0.4
		c0.3,0,0.7,0.1,1,0.4V14.3z M35.8,12.9c-0.2-0.2-0.6-0.3-1-0.3c-0.5,0-0.8,0.1-1,0.3v-0.4c0-0.7,0.4-1,1-1c0.7,0,1,0.3,1,1V12.9z
		 M46.1,18.9v2.4h-4.6v-2.4c0-0.6,0.2-1.2,0.7-1.6c0.4-0.5,1-0.7,1.6-0.7c0.6,0,1.2,0.2,1.6,0.7C45.9,17.7,46.1,18.2,46.1,18.9z
		 M46.1,28.6V31h-4.6v-2.4c0-0.6,0.2-1.2,0.7-1.6c0.4-0.5,1-0.7,1.6-0.7c0.6,0,1.2,0.2,1.6,0.7C45.9,27.4,46.1,27.9,46.1,28.6z
		 M62.7,17.5c1,1,1.5,2.2,1.5,3.6v9.8h-4.7v-3.5h1.2v-6.3c0-0.4-0.2-0.8-0.5-1.1c-0.3-0.3-0.7-0.5-1.1-0.5c-1,0-1.5,0.5-1.6,1.4v9.9
		h-4.8v-3.5H54v-5.1h0V21c-0.1-1-0.6-1.4-1.6-1.4c-0.4,0-0.8,0.2-1.1,0.5c-0.3,0.3-0.5,0.7-0.5,1.1v6.3h1v3.5h-4.5v-9.8
		c0-1.4,0.5-2.6,1.5-3.6c1-1,2.2-1.5,3.6-1.5c1.3,0,2.4,0.4,3.3,1.3c1-0.8,2.1-1.3,3.3-1.3C60.5,16,61.7,16.5,62.7,17.5z M74.3,17.5
		c1,1,1.5,2.2,1.5,3.6v1.5h-3.5v-1.5c0-0.4-0.2-0.8-0.5-1.1c-0.3-0.3-0.7-0.5-1.1-0.5c-0.4,0-0.8,0.2-1.1,0.5
		c-0.3,0.3-0.5,0.7-0.5,1.1v6.3h3.2V26h3.5v4.9H65.6v-9.8c0-1.4,0.5-2.6,1.5-3.6c1-1,2.2-1.5,3.6-1.5C72.2,16,73.4,16.5,74.3,17.5z
		 M71.8,15.7h-5.4v-3.1c0-1.3,0.4-2.4,1.3-3.2C68.6,8.4,69.7,8,71,8c1.3,0,2.4,0.4,3.2,1.3c0.9,0.9,1.3,2,1.3,3.2v0.9H72v-1
		c0-0.6-0.3-1-1-1c-0.7,0-1,0.3-1,1v1.8h1.9V15.7z M82,28.6V31h-4.6v-2.4c0-0.6,0.2-1.2,0.7-1.6c0.4-0.5,1-0.7,1.6-0.7
		c0.6,0,1.2,0.2,1.6,0.7S82,27.9,82,28.6z M82,18.9v2.4h-4.6v-2.4c0-0.6,0.2-1.2,0.7-1.6c0.4-0.5,1-0.7,1.6-0.7
		c0.6,0,1.2,0.2,1.6,0.7C81.8,17.7,82,18.2,82,18.9z"/>
</g>
<linearGradient id="SVGID_2_" gradientUnits="userSpaceOnUse" x1="0" y1="22.1511" x2="20.2593" y2="22.1511">
	<stop  offset="0" style="stop-color:#FBAB7E"/>
	<stop  offset="1" style="stop-color:#F7CE68"/>
</linearGradient>
<circle class="st7" cx="10.1" cy="22.2" r="10.1"/>
</svg>
